<svg width="448" height="449" viewBox="0 0 448 449" fill="none" xmlns="http://www.w3.org/2000/svg">
<g clip-path="url(#clip0)">
<path d="M216 128.672V72.6719H132.961L125.199 128.672H216Z" fill="#041B2D"/>
<path d="M216 144.672H122.961L115.199 200.672H216V144.672Z" fill="#041B2D"/>
<path d="M116.801 72.6719H28.9609L21.1992 128.672H109.039L116.801 72.6719Z" fill="#041B2D"/>
<path d="M126.801 0.671875H38.9609L31.1992 56.6719H119.039L126.801 0.671875Z" fill="#041B2D"/>
<path d="M0 288.672H448V304.672H0V288.672Z" fill="#041B2D"/>
<path d="M105.199 272.672H216V216.672H112.961L105.199 272.672Z" fill="#041B2D"/>
<path d="M106.801 144.672H18.9609L11.1992 200.672H99.0391L106.801 144.672Z" fill="#041B2D"/>
<path d="M216 0.671875H142.961L135.199 56.6719H216V0.671875Z" fill="#041B2D"/>
<path d="M305.039 0.671875H232V56.6719H312.801L305.039 0.671875Z" fill="#041B2D"/>
<path d="M96.8008 216.672H8.96094L1.19922 272.672H89.0391L96.8008 216.672Z" fill="#041B2D"/>
<path d="M315.039 72.6719H232V128.672H322.801L315.039 72.6719Z" fill="#041B2D"/>
<path d="M416.801 56.6719L409.039 0.671875H321.199L328.961 56.6719H416.801Z" fill="#041B2D"/>
<path d="M335.039 216.672H232V272.672H342.801L335.039 216.672Z" fill="#041B2D"/>
<path d="M338.961 128.672H426.801L419.039 72.6719H331.199L338.961 128.672Z" fill="#041B2D"/>
<path d="M358.961 272.672H446.801L439.039 216.672H351.199L358.961 272.672Z" fill="#041B2D"/>
<path d="M348.961 200.672H436.801L429.039 144.672H341.199L348.961 200.672Z" fill="#041B2D"/>
<path d="M325.039 144.672H232V200.672H332.801L325.039 144.672Z" fill="#041B2D"/>
<path d="M184.801 416.672H263.199C259.414 398.027 243.023 384.633 224 384.633C204.977 384.633 188.586 398.027 184.801 416.672V416.672Z" fill="#041B2D"/>
<path d="M352 432.672H96C91.582 432.672 88 436.254 88 440.672V448.672H360V440.672C360 436.254 356.418 432.672 352 432.672Z" fill="#041B2D"/>
<path d="M232 369.312V320.672H216V369.312C221.301 368.457 226.699 368.457 232 369.312Z" fill="#041B2D"/>
</g>
<defs>
<clipPath id="clip0">
<rect y="0.671875" width="448" height="448" fill="white"/>
</clipPath>
</defs>
</svg>
