<svg width="512" height="513" viewBox="0 0 512 513" fill="none" xmlns="http://www.w3.org/2000/svg">
<path d="M127.832 354.216C125.711 354.214 123.677 355.054 122.176 356.552L37.3276 441.408C35.8279 442.908 34.9854 444.943 34.9854 447.064C34.9854 449.185 35.8279 451.22 37.3276 452.72L59.9516 475.344C61.4519 476.844 63.4863 477.686 65.6076 477.686C67.729 477.686 69.7634 476.844 71.2636 475.344L156.12 390.496C156.863 389.753 157.454 388.871 157.856 387.899C158.259 386.928 158.466 385.887 158.466 384.836C158.466 383.785 158.259 382.743 157.856 381.772C157.454 380.801 156.863 379.919 156.12 379.176L133.496 356.552C132.751 355.809 131.868 355.221 130.896 354.82C129.924 354.419 128.883 354.214 127.832 354.216V354.216Z" fill="#041B2D"/>
<path d="M207.032 316.96C210.032 313.96 214.101 312.275 218.344 312.275C222.586 312.275 226.655 313.96 229.656 316.96L331.48 418.784C333.005 420.236 335.03 421.047 337.136 421.047C339.242 421.047 341.267 420.236 342.792 418.784L410.672 350.896C412.172 349.396 413.014 347.361 413.014 345.24C413.014 343.118 412.172 341.084 410.672 339.584L382.4 311.296L371.088 322.616L382.4 333.928C385.399 336.928 387.084 340.997 387.084 345.24C387.084 349.482 385.399 353.551 382.4 356.552L348.456 390.496C345.456 393.493 341.389 395.176 337.148 395.176C332.907 395.176 328.84 393.493 325.84 390.496L224 288.672C222.477 287.216 220.451 286.403 218.344 286.403C216.237 286.403 214.211 287.216 212.688 288.672L150.464 350.896L161.776 362.208L207.032 316.96Z" fill="#041B2D"/>
<path d="M224 110.968C222.95 110.965 221.908 111.171 220.938 111.573C219.967 111.975 219.085 112.566 218.344 113.312L173.088 158.56C172.345 159.303 171.755 160.185 171.352 161.156C170.949 162.127 170.742 163.168 170.742 164.22C170.742 165.271 170.949 166.312 171.352 167.283C171.755 168.255 172.345 169.137 173.088 169.88L331.488 328.28C333.01 329.736 335.035 330.548 337.141 330.548C339.246 330.548 341.271 329.736 342.792 328.28L388.048 283.024C388.792 282.281 389.382 281.399 389.785 280.427C390.188 279.456 390.395 278.415 390.395 277.364C390.395 276.312 390.188 275.271 389.785 274.3C389.382 273.329 388.792 272.447 388.048 271.704L229.648 113.304C228.908 112.561 228.028 111.972 227.058 111.571C226.089 111.17 225.05 110.965 224 110.968V110.968Z" fill="#041B2D"/>
<path d="M315.488 38.8L246.624 107.648L393.704 254.728L478.56 169.88C479.303 169.137 479.892 168.254 480.294 167.283C480.695 166.313 480.902 165.272 480.902 164.221C480.901 163.17 480.694 162.13 480.291 161.159C479.889 160.189 479.299 159.307 478.556 158.564C477.813 157.821 476.93 157.232 475.96 156.83C474.989 156.429 473.948 156.222 472.897 156.222C471.846 156.223 470.806 156.43 469.835 156.833C468.865 157.235 467.983 157.825 467.24 158.568L416.336 209.472C411.81 213.844 405.747 216.263 399.454 216.208C393.162 216.154 387.142 213.629 382.692 209.18C378.243 204.73 375.719 198.71 375.664 192.418C375.609 186.125 378.028 180.062 382.4 175.536L399.376 158.568C400.12 157.825 400.71 156.943 401.113 155.972C401.515 155 401.722 153.959 401.722 152.908C401.722 151.857 401.515 150.816 401.113 149.844C400.71 148.873 400.12 147.991 399.376 147.248C397.853 145.792 395.827 144.979 393.72 144.979C391.613 144.979 389.587 145.792 388.064 147.248L365.44 169.88C360.939 174.381 354.834 176.91 348.468 176.91C342.102 176.91 335.997 174.381 331.496 169.88C326.995 165.379 324.466 159.274 324.466 152.908C324.466 146.542 326.995 140.437 331.496 135.936L354.128 113.312C355.628 111.811 356.47 109.775 356.47 107.653C356.469 105.531 355.625 103.496 354.124 101.996C352.623 100.496 350.587 99.6536 348.465 99.6544C346.343 99.6551 344.308 100.499 342.808 102L320.184 124.624C315.611 128.988 309.533 131.423 303.212 131.423C296.891 131.423 290.813 128.988 286.24 124.624C284.011 122.395 282.243 119.749 281.036 116.837C279.83 113.925 279.209 110.804 279.209 107.652C279.209 104.5 279.83 101.379 281.036 98.4667C282.243 95.5546 284.011 92.9087 286.24 90.68L326.792 50.112C328.289 48.6121 329.13 46.5794 329.13 44.46C329.13 42.3407 328.289 40.3079 326.792 38.808C325.272 37.3494 323.248 36.5342 321.142 36.5327C319.035 36.5312 317.01 37.3435 315.488 38.8V38.8Z" fill="#041B2D"/>
<path d="M399.36 56.7439C398.241 55.6248 396.816 54.8627 395.264 54.5538C393.712 54.2449 392.103 54.4032 390.641 55.0086C389.179 55.6141 387.93 56.6394 387.051 57.9551C386.171 59.2707 385.702 60.8176 385.702 62.3999C385.702 63.9823 386.171 65.5291 387.051 66.8447C387.93 68.1604 389.179 69.1857 390.641 69.7912C392.103 70.3966 393.712 70.5549 395.264 70.246C396.816 69.9371 398.241 69.175 399.36 68.0559C400.857 66.556 401.698 64.5233 401.698 62.4039C401.698 60.2846 400.857 58.2518 399.36 56.7519V56.7439Z" fill="#041B2D"/>
<path d="M444.616 113.312C445.735 112.193 446.497 110.768 446.806 109.216C447.115 107.664 446.957 106.055 446.351 104.593C445.746 103.131 444.72 101.882 443.405 101.003C442.089 100.124 440.542 99.6543 438.96 99.6543C437.378 99.6543 435.831 100.124 434.515 101.003C433.2 101.882 432.174 103.131 431.569 104.593C430.963 106.055 430.805 107.664 431.114 109.216C431.423 110.768 432.185 112.193 433.304 113.312C434.826 114.77 436.852 115.584 438.96 115.584C441.068 115.584 443.094 114.77 444.616 113.312V113.312Z" fill="#041B2D"/>
</svg>
