<svg width="512" height="513" viewBox="0 0 512 513" fill="none" xmlns="http://www.w3.org/2000/svg">
<path d="M423.576 395.016L458.865 430.312C461.585 420.204 461.782 409.583 459.44 399.382C457.097 389.18 452.285 379.709 445.428 371.801C438.57 363.893 429.876 357.789 420.109 354.026C410.341 350.262 399.799 348.954 389.408 350.216C383.364 351.005 377.22 350.39 371.452 348.418C365.684 346.446 360.449 343.172 356.153 338.848L289.281 271.984L255.312 305.952L322.217 372.856C326.533 377.158 329.8 382.397 331.764 388.165C333.729 393.934 334.338 400.078 333.545 406.12C332.291 416.504 333.603 427.037 337.367 436.796C341.131 446.555 347.232 455.241 355.134 462.094C363.036 468.947 372.499 473.756 382.692 476.101C392.885 478.446 403.498 478.255 413.601 475.544L378.313 440.248C376.824 438.743 375.992 436.709 376.001 434.592V400.672C376.001 398.55 376.843 396.515 378.344 395.015C379.844 393.515 381.879 392.672 384.001 392.672H417.921C420.042 392.672 422.077 393.515 423.576 395.016V395.016Z" fill="#041B2D"/>
<path d="M72.424 134.328L37.128 99.072C34.4109 109.18 34.2162 119.8 36.5609 130C38.9056 140.201 43.7181 149.67 50.576 157.577C57.4339 165.483 66.1276 171.586 75.8942 175.349C85.6608 179.112 96.2017 180.421 106.592 179.16C108.272 178.953 109.963 178.849 111.656 178.848C116.895 178.821 122.087 179.839 126.928 181.844C131.769 183.848 136.161 186.797 139.848 190.52L198.72 249.392L232.688 215.424L173.784 156.52C169.465 152.22 166.196 146.982 164.231 141.212C162.266 135.443 161.659 129.298 162.456 123.256C163.714 112.87 162.404 102.334 158.642 92.5715C154.88 82.8093 148.78 74.1191 140.877 67.263C132.975 60.4069 123.511 55.5943 113.316 53.247C103.12 50.8998 92.5049 51.0897 82.4 53.8L117.688 89.096C119.177 90.6012 120.008 92.635 120 94.752V128.672C120 130.794 119.157 132.829 117.657 134.329C116.157 135.829 114.122 136.672 112 136.672H78.08C75.9585 136.672 73.924 135.828 72.424 134.328V134.328Z" fill="#041B2D"/>
<path d="M83.5443 455.072L329.552 209.088L295.584 175.12L49.6003 421.128C45.0991 425.629 42.5703 431.734 42.5703 438.1C42.5703 444.466 45.0991 450.571 49.6003 455.072C54.1016 459.573 60.2066 462.102 66.5723 462.102C72.9381 462.102 79.0431 459.573 83.5443 455.072V455.072Z" fill="#041B2D"/>
<path d="M458.48 173.344L438.584 177.344C437.296 177.598 435.966 177.532 434.711 177.151C433.455 176.77 432.313 176.087 431.384 175.16L414.4 158.16C412.9 156.66 412.057 154.625 412.057 152.504C412.057 150.383 412.9 148.348 414.4 146.848L431.376 129.88L386.272 84.7841C376.225 74.721 363.417 67.8663 349.472 65.0881L236 42.3921L235.56 42.8321L299.064 74.5841C304.733 77.418 309.648 81.5588 313.404 86.6652C317.159 91.7715 319.647 97.6972 320.663 103.954C321.678 110.211 321.193 116.619 319.246 122.651C317.298 128.683 313.946 134.166 309.464 138.648L295.608 152.488L352.184 209.056L369.144 192.104C370.644 190.604 372.678 189.762 374.8 189.762C376.921 189.762 378.955 190.604 380.456 192.104L397.424 209.072C398.35 210.001 399.034 211.144 399.415 212.399C399.796 213.655 399.862 214.985 399.608 216.272L395.608 236.152C395.354 237.44 395.422 238.77 395.804 240.026C396.186 241.282 396.872 242.424 397.8 243.352L408.712 254.264L476.592 186.384L465.68 175.464C464.744 174.549 463.599 173.877 462.344 173.507C461.088 173.138 459.762 173.082 458.48 173.344V173.344Z" fill="#041B2D"/>
</svg>
