<svg width="512" height="513" viewBox="0 0 512 513" fill="none" xmlns="http://www.w3.org/2000/svg">
<path d="M232 96.6718C231.992 107.226 234.308 117.652 238.785 127.209C243.262 136.766 249.79 145.219 257.904 151.968C262.343 155.692 265.907 160.348 268.343 165.604C270.779 170.861 272.028 176.59 272 182.384V280.672C272 282.794 272.843 284.828 274.343 286.329C275.843 287.829 277.878 288.672 280 288.672H296V192.672C296 190.55 296.843 188.515 298.343 187.015C299.843 185.515 301.878 184.672 304 184.672C306.122 184.672 308.157 185.515 309.657 187.015C311.157 188.515 312 190.55 312 192.672V288.672H336V182.384C335.975 176.593 337.224 170.867 339.66 165.613C342.097 160.359 345.659 155.706 350.096 151.984C358.7 144.82 365.514 135.748 369.995 125.488C374.477 115.228 376.502 104.064 375.91 92.8838C375.318 81.7036 372.125 70.8158 366.586 61.0865C361.046 51.3571 353.312 43.0548 344 36.8398V104.672C344 105.914 343.711 107.139 343.155 108.25C342.6 109.36 341.794 110.327 340.8 111.072L308.8 135.072C307.415 136.11 305.731 136.672 304 136.672C302.269 136.672 300.585 136.11 299.2 135.072L267.2 111.072C266.206 110.327 265.4 109.36 264.845 108.25C264.289 107.139 264 105.914 264 104.672V36.8398C254.156 43.4107 246.085 52.309 240.503 62.746C234.921 73.1829 232 84.8359 232 96.6718V96.6718Z" fill="#041B2D"/>
<path d="M414.64 304.672H280C273.635 304.672 267.53 302.143 263.029 297.642C258.529 293.142 256 287.037 256 280.672V232.672H230.624C228.504 232.68 226.472 233.522 224.968 235.016L178.344 281.64C176.122 283.876 173.478 285.65 170.565 286.857C167.652 288.064 164.529 288.681 161.376 288.672H144V456.672H162.664C167.856 456.679 172.906 458.363 177.064 461.472L200.52 479.072C201.907 480.107 203.59 480.668 205.32 480.672H368C372.243 480.672 376.313 478.986 379.314 475.986C382.314 472.985 384 468.915 384 464.672C384 460.428 382.314 456.359 379.314 453.358C376.313 450.358 372.243 448.672 368 448.672H320C317.878 448.672 315.843 447.829 314.343 446.329C312.843 444.828 312 442.794 312 440.672C312 438.55 312.843 436.515 314.343 435.015C315.843 433.515 317.878 432.672 320 432.672H384C388.243 432.672 392.313 430.986 395.314 427.986C398.314 424.985 400 420.915 400 416.672C400 412.428 398.314 408.359 395.314 405.358C392.313 402.358 388.243 400.672 384 400.672H320C317.878 400.672 315.843 399.829 314.343 398.329C312.843 396.828 312 394.794 312 392.672C312 390.55 312.843 388.515 314.343 387.015C315.843 385.515 317.878 384.672 320 384.672H400C404.243 384.672 408.313 382.986 411.314 379.986C414.314 376.985 416 372.915 416 368.672C416 364.428 414.314 360.359 411.314 357.358C408.313 354.358 404.243 352.672 400 352.672H320C317.878 352.672 315.843 351.829 314.343 350.329C312.843 348.828 312 346.794 312 344.672C312 342.55 312.843 340.515 314.343 339.015C315.843 337.515 317.878 336.672 320 336.672H416C418.101 336.675 420.182 336.262 422.122 335.456C424.063 334.65 425.824 333.467 427.304 331.976C428.935 330.352 430.199 328.397 431.009 326.242C431.819 324.088 432.157 321.784 432 319.488C431.451 315.308 429.373 311.481 426.167 308.744C422.961 306.008 418.854 304.557 414.64 304.672Z" fill="#041B2D"/>
<path d="M128 480.672V264.672H32V480.672H128ZM80 416.672C84.7468 416.672 89.3869 418.079 93.3337 420.717C97.2805 423.354 100.357 427.102 102.173 431.487C103.99 435.873 104.465 440.698 103.539 445.354C102.613 450.01 100.327 454.286 96.9706 457.642C93.6141 460.999 89.3377 463.285 84.6822 464.211C80.0266 465.137 75.201 464.661 70.8156 462.845C66.4302 461.028 62.6819 457.952 60.0447 454.006C57.4076 450.059 56 445.419 56 440.672C56 434.307 58.5286 428.202 63.0294 423.701C67.5303 419.2 73.6348 416.672 80 416.672V416.672Z" fill="#041B2D"/>
<path d="M80 448.672C84.4183 448.672 88 445.09 88 440.672C88 436.254 84.4183 432.672 80 432.672C75.5817 432.672 72 436.254 72 440.672C72 445.09 75.5817 448.672 80 448.672Z" fill="#041B2D"/>
</svg>
