<svg width="496" height="462" viewBox="0 0 496 462" fill="none" xmlns="http://www.w3.org/2000/svg">
<path d="M414.096 10.1469C442.685 10.1469 470.05 19.5407 492.922 37.5114L494.964 39.145V26.4839C471.275 9.33007 443.502 0.344727 414.504 0.344727C336.904 0.344727 273.598 65.6927 273.598 145.744C273.598 225.795 336.904 291.143 414.504 291.143C443.502 291.143 471.684 281.749 495.372 265.004V252.343C472.5 270.722 444.319 280.932 414.913 280.932C342.621 280.932 283.808 220.077 283.808 145.335C283.808 70.5937 342.621 9.73849 414.913 9.73849L414.096 10.1469Z" fill="#E0B084"/>
<path d="M291.536 1.97843L290.719 0.344727H281.733L160.431 291.143H171.459L218.428 177.601H353.208L400.585 291.143H411.612L291.536 1.97843ZM218.428 177.601L285.818 15.8649L353.208 177.601H218.428Z" fill="#E0B084"/>
<path d="M131.96 1.97843L131.143 0.344727H122.158L0.855835 291.143H11.8833L58.8521 177.601H193.632L241.009 291.143H252.037L131.96 1.97843ZM58.8521 177.601L126.242 15.8649L193.632 177.601H58.8521Z" fill="#E0B084"/>
<path d="M103.452 376.904H86.0532V430.979H78.5382V376.904H61.1393V370.532H103.452V376.904Z" fill="#E0B084"/>
<path d="M192.489 430.979H182.686L159.978 400.02V430.979H152.381V370.532L174.763 370.696C179.065 370.696 182.578 372.329 185.3 375.597C188.078 378.864 189.466 382.649 189.466 386.951C189.466 389.238 189.058 391.362 188.241 393.322C187.479 395.283 186.199 397.08 184.402 398.713C182.387 400.347 180.181 401.518 177.785 402.226H169.78L192.489 430.979ZM175.907 377.72C175.199 377.448 174.436 377.23 173.619 377.067C172.857 376.849 172.149 376.74 171.496 376.74H159.978V396.998H173.456C176.07 396.998 178.085 396.1 179.501 394.302C180.971 392.451 181.706 390.218 181.706 387.604C181.706 385.426 181.216 383.438 180.236 381.641C179.256 379.844 177.813 378.537 175.907 377.72Z" fill="#E0B084"/>
<path d="M282.015 430.979H273.52L265.76 412.191H241.745L233.985 430.979H226.143L252.69 368.898H254.651L282.015 430.979ZM263.391 406.719L253.344 380.743L243.542 406.719H263.391Z" fill="#E0B084"/>
<path d="M354.306 427.63C352.183 428.665 350.059 429.481 347.935 430.08C345.811 430.679 343.715 430.979 341.645 430.979H318.773V370.532H344.504C352.183 371.295 358.255 374.698 362.72 380.743C367.185 386.733 369.418 393.595 369.418 401.327C369.418 407.045 368.166 412.246 365.661 416.929C363.156 421.612 359.371 425.179 354.306 427.63ZM361.413 396.835C360.977 392.097 359.126 387.904 355.858 384.255C352.645 380.607 348.697 378.265 344.014 377.23H325.88V424.444H341.482C347.635 424.444 352.537 421.994 356.185 417.093C359.834 412.191 361.658 406.61 361.658 400.347C361.658 399.149 361.576 397.978 361.413 396.835Z" fill="#E0B084"/>
<path d="M442.935 430.979H410.097V370.532H442.935V377.067H417.531V394.956H442.935V401.164H417.367V424.444H442.935V430.979Z" fill="#E0B084"/>
<path d="M493.873 339.922V459.955H2.3562V339.922H493.873Z" stroke="#E0B084" stroke-width="3"/>
</svg>
