<svg width="1404" height="1254" viewBox="0 0 1404 1254" fill="none" xmlns="http://www.w3.org/2000/svg">
<path d="M1168.4 27.1634C1248.37 27.1634 1322.63 54.5825 1386.61 104.851L1392.32 109.421V74.0043C1326.06 26.0209 1248.37 0.886719 1167.26 0.886719C950.191 0.886719 773.11 183.681 773.11 407.603C773.11 631.526 950.191 814.32 1167.26 814.32C1248.37 814.32 1327.2 788.044 1393.47 741.203V705.786C1329.49 757.197 1250.66 785.759 1168.4 785.759C966.186 785.759 801.671 615.532 801.671 406.461C801.671 197.39 966.186 27.1634 1168.4 27.1634Z" fill="#E0B084"/>
<path d="M823.286 5.45658L821.001 0.886719H795.867L456.556 814.32H487.402L618.785 496.716H995.798L1126.43 807.238L1159.17 814.32L823.286 5.45658ZM618.785 496.716L807.292 44.3004L995.798 496.716H618.785Z" fill="#E0B084"/>
<path d="M376.915 5.45658L374.63 0.886719H349.496L10.1842 814.32H41.0307L172.414 496.716H549.427L681.952 814.32H712.799L376.915 5.45658ZM172.414 496.716L360.92 44.3004L549.427 496.716H172.414Z" fill="#E0B084"/>
<path d="M297.169 1007.43H248.5V1158.7H227.479V1007.43H178.81V989.611H297.169V1007.43Z" fill="#E0B084"/>
<path d="M546.226 1158.7H518.807L455.286 1072.1V1158.7H434.036V989.611L496.643 990.068C508.677 990.068 518.503 994.638 526.119 1003.78C533.888 1012.92 537.772 1023.5 537.772 1035.54C537.772 1041.94 536.63 1047.88 534.345 1053.36C532.212 1058.84 528.632 1063.87 523.606 1068.44C517.969 1073.01 511.8 1076.29 505.098 1078.27H482.705L546.226 1158.7ZM499.842 1009.72C497.862 1008.96 495.729 1008.35 493.445 1007.89C491.312 1007.28 489.332 1006.98 487.504 1006.98H455.286V1063.64H492.988C500.299 1063.64 505.935 1061.13 509.896 1056.1C514.009 1050.92 516.065 1044.68 516.065 1037.37C516.065 1031.27 514.694 1025.71 511.952 1020.69C509.211 1015.66 505.174 1012 499.842 1009.72Z" fill="#E0B084"/>
<path d="M796.654 1158.7H772.891L751.184 1106.14H684.007L662.301 1158.7H640.365L714.625 985.041H720.109L796.654 1158.7ZM744.558 1090.83L716.453 1018.17L689.034 1090.83H744.558Z" fill="#E0B084"/>
<path d="M998.87 1149.33C992.929 1152.22 986.988 1154.51 981.048 1156.18C975.107 1157.86 969.242 1158.7 963.454 1158.7H899.476V989.611H971.451C992.929 991.743 1009.91 1001.26 1022.4 1018.17C1034.9 1034.93 1041.14 1054.12 1041.14 1075.75C1041.14 1091.75 1037.64 1106.29 1030.63 1119.39C1023.62 1132.49 1013.04 1142.47 998.87 1149.33ZM1018.75 1063.19C1017.53 1049.93 1012.35 1038.2 1003.21 1028C994.224 1017.79 983.18 1011.24 970.08 1008.35H919.355V1140.42H962.997C980.21 1140.42 993.919 1133.56 1004.13 1119.85C1014.33 1106.14 1019.43 1090.53 1019.43 1073.01C1019.43 1069.66 1019.21 1066.38 1018.75 1063.19Z" fill="#E0B084"/>
<path d="M1246.78 1158.7H1154.93V989.611H1246.78V1007.89H1175.72V1057.93H1246.78V1075.3H1175.27V1140.42H1246.78V1158.7Z" fill="#E0B084"/>
<path d="M5.1842 1243.94V1248.94H10.1842H1393.47H1398.47V1243.94V899.791V894.791H1393.47H10.1842H5.1842V899.791V1243.94Z" stroke="#E0B084" stroke-width="10"/>
</svg>
